/* XPM */
static char *_618931641784f18f77ec78bc593241endRkCN7gLWAASzTe[] = {
/* columns rows colors chars-per-pixel */
"100 100 2 1 ",
"  c #D77BBA",
". c #5FCDE4",
/* pixels */
"                                                                                                    ",
"                                                                                                    ",
"                                                                                                    ",
"                                                                                                    ",
"                                                                                                    ",
"                                                                                                    ",
"                                                                                                    ",
"                                                                                                    ",
"                                                                                                    ",
"                                                                                                    ",
"                                                                                                    ",
"                                                                                                    ",
"                                                                                                    ",
"                                                                                                    ",
"                                                                                                    ",
"                                                                                                    ",
"                                                                ...                                 ",
"                                                               .....                                ",
"                                                              .......                               ",
"                            ...                               .......                               ",
"                           .....                              .......                               ",
"                          .......                             .......                               ",
"                          .......                             .......                               ",
"                          ........                            .......                               ",
"                          ........                            .......                               ",
"                          .........                           .......                               ",
"                          .........                           .......                               ",
"                          ..........                          .......                               ",
"                          ..........                          .......                               ",
"                          ...........                         .......                               ",
"                          ...........                         .......                               ",
"                          ............                        .......                               ",
"                          ............                        .......                               ",
"                          ............                        .......                               ",
"                          .............                       .......                               ",
"                          ..............                      .......                               ",
"                          ..............                      .......                               ",
"                          ...............                     .......                               ",
"                          ................                    .......                               ",
"                          ....... ........                    .......                               ",
"                          .......  ........                   .......                               ",
"                          .......  ........                   .......                               ",
"                          .......   ........                  .......                               ",
"                          .......   ........                  .......                               ",
"                          .......    ........                 .......                               ",
"                          .......    .........                .......                               ",
"                          .......     ........                .......                               ",
"                          .......      ........               .......                               ",
"                          .......      ........               .......                               ",
"                         ........       .......               .......                               ",
"                         ........       ........              .......                               ",
"                         .......        ........              .......                               ",
"                         .......        .........             .......                               ",
"                         .......         ........             .......                               ",
"                         .......          .......            ........                               ",
"                         .......          ........           ........                               ",
"                         .......          .........          .......                                ",
"                         .......           ........          .......                                ",
"                        ........            ........        ........                                ",
"                        ........            ........        ........                                ",
"                        .......              ........       .......                                 ",
"                        .......              ........       .......                                 ",
"                       ........               ........     ........                                 ",
"                       ........               ........     ........                                 ",
"                       .......                 ........    .......                                  ",
"                       .......                 ........    .......                                  ",
"                       .......                 .........   .......                                  ",
"                       .......                  ........  ........                                  ",
"                       .......                   .......  ........                                  ",
"                       .......                   ........ .......                                   ",
"                       .......                   ................                                   ",
"                      ........                    ...............                                   ",
"                      ........                     .............                                    ",
"                      .......                      .............                                    ",
"                      .......                      .............                                    ",
"                      .......                       ............                                    ",
"                      .......                       ............                                    ",
"                      .......                        ..........                                     ",
"                      .......                        ..........                                     ",
"                      .......                         .........                                     ",
"                      .......                         .........                                     ",
"                      .......                          .......                                      ",
"                      .......                           .....                                       ",
"                      .......                            ...                                        ",
"                      .......                                                                       ",
"                      .......                                                                       ",
"                      .......                                                                       ",
"                       .....                                                                        ",
"                        ...                                                                         ",
"                                                                                                    ",
"                                                                                                    ",
"                                                                                                    ",
"                                                                                                    ",
"                                                                                                    ",
"                                                                                                    ",
"                                                                                                    ",
"                                                                                                    ",
"                                                                                                    ",
"                                                                                                    ",
"                                                                                                    "
};
