/* XPM */
static char *a8c8a09f517549ada9a31a09035c0961iLPLAWoBIbizClpb[] = {
/* columns rows colors chars-per-pixel */
"100 100 2 1 ",
"  c #D77BBA",
". c #5FCDE4",
/* pixels */
"....................................................................................................",
"....................................................................................................",
"....................................................................................................",
"....................................................................................................",
"....................................................................................................",
"....................................................................................................",
"....................................................................................................",
"....................................................................................................",
"....................................................................................................",
"....................................................................................................",
"....................................................................................................",
"....................................................................................................",
"....................................................................................................",
"....................................................................................................",
"....................................................................................................",
"..............................................                     .................................",
"............................................                          ..............................",
".........................................                              .............................",
".......................................                                  ...........................",
".....................................                                     ..........................",
"....................................            .................          .........................",
"...................................           ......................       .........................",
"..................................         ..........................      .........................",
".................................        .............................     .........................",
".................................      ...............................     .........................",
"................................      ................................     .........................",
"................................      .................................   ..........................",
"................................      ..............................................................",
"................................      ..............................................................",
".................................     ..............................................................",
".................................     ..............................................................",
".................................      .............................................................",
".................................       ............................................................",
"..................................       ...........................................................",
"...................................       ..........................................................",
"....................................       .........................................................",
".....................................      .........................................................",
"......................................       .......................................................",
"......................................         .....................................................",
".......................................          ...................................................",
"........................................           .................................................",
".........................................            ...............................................",
"...........................................            .............................................",
".............................................            ...........................................",
"...............................................             ........................................",
".................................................             ......................................",
"...................................................             ....................................",
".....................................................            ...................................",
".......................................................           ..................................",
"..........................................................         .................................",
"............................................................        ................................",
"..............................................................       ...............................",
"...............................................................       ..............................",
"................................................................      ..............................",
".................................................................      .............................",
".................................................................       ............................",
"..................................................................       ...........................",
"...................................................................      ...........................",
"....................................................................      ..........................",
"....................................................................      ..........................",
".....................................................................     ..........................",
".....................................................................     ..........................",
".....................................................................      .........................",
".....................     ...........................................      .........................",
"....................       ...........................................     .........................",
"...................        ...........................................     .........................",
"...................        ...........................................     .........................",
"...................       ...........................................      .........................",
"...................     .............................................      .........................",
"...................      ............................................      .........................",
"...................        .........................................      ..........................",
"....................        .......................................       ..........................",
"....................           ...................................       ...........................",
".....................            ................................       ............................",
".......................            ..........................           ............................",
".........................             ......................           .............................",
"..........................              ................             ...............................",
".............................               .........               ................................",
"...............................                                    .................................",
".................................                              .....................................",
"....................................                          ......................................",
"......................................                    ..........................................",
"..........................................             .............................................",
"....................................................................................................",
"....................................................................................................",
"....................................................................................................",
"....................................................................................................",
"....................................................................................................",
"....................................................................................................",
"....................................................................................................",
"....................................................................................................",
"....................................................................................................",
"....................................................................................................",
"....................................................................................................",
"....................................................................................................",
"....................................................................................................",
"....................................................................................................",
"....................................................................................................",
"....................................................................................................",
"...................................................................................................."
};
