/* XPM */
static char *_cb069bcefb9415bd71f2736fac39b2fRb0UpJSJjGQ6J8pv[] = {
/* columns rows colors chars-per-pixel */
"100 100 2 1 ",
"  c black",
". c #D77BBA",
/* pixels */
"                                                                                                    ",
"                                                                                                    ",
"                                                                                                    ",
"                                                                                                    ",
"                                                                                                    ",
"                                                                                                    ",
"                                                                                                    ",
"                                                                                                    ",
"                                                                                                    ",
"                                                                                                    ",
"                                                                                                    ",
"                                                                                                    ",
"                                                                                                    ",
"                                                                                                    ",
"                                                                                                    ",
"                                                                                                    ",
"                                                                                                    ",
"                                                                                                    ",
"                                                                                                    ",
"                                                                                                    ",
"                                                                                                    ",
"                                                                                                    ",
"                                                                                                    ",
"                                                                                                    ",
"                                                                                                    ",
"                                                                                                    ",
"                      ...                                                                           ",
"                     .....                                                                          ",
"                     .....                                                                          ",
"                     ......                                                                         ",
"                     ......                                         ...                             ",
"                      .....                                        .....                            ",
"                      .....                                        .....                            ",
"                      .....                                        .....                            ",
"                      .....                                        .....                            ",
"                      .....                                       ......                            ",
"                      .....                                       ......                            ",
"                      .....                                       .....                             ",
"                      .....                                       .....                             ",
"                      .....                                       .....                             ",
"                      ......                                     ......                             ",
"                      ......                                     ......                             ",
"                       .....                                     .....                              ",
"                       ......                                    .....                              ",
"                       ......                                    .....                              ",
"                        .....                                    .....                              ",
"                        .....                                   ......                              ",
"                        .....                                   ......                              ",
"                        .....                                   .....                               ",
"                        .....                                   .....                               ",
"                        .....                                   .....                               ",
"                        .....                                   .....                               ",
"                        ......                                  .....                               ",
"                        ......                                  .....                               ",
"                         .....                                  .....                               ",
"                         ......         ........               ......                               ",
"                         ......        ..........              ......                               ",
"                          .....       ............             .....                                ",
"                          .....       .............           ......                                ",
"                          ......     ...............          ......                                ",
"                          ......    .......   .......         .....                                 ",
"                           .....   .......     ......        ......                                 ",
"                           .....   ......       ......       ......                                 ",
"                           ...... ......        .......     ......                                  ",
"                           .............         .......    ......                                  ",
"                            ...........           .......   .....                                   ",
"                            ..........             .......  .....                                   ",
"                            ..........              ...... ......                                   ",
"                             ........                ............                                   ",
"                             ........                ...........                                    ",
"                             .......                  .........                                     ",
"                              ......                  ........                                      ",
"                               ....                    .......                                      ",
"                                                       ......                                       ",
"                                                        ....                                        ",
"                                                                                                    ",
"                                                                                                    ",
"                                                                                                    ",
"                                                                                                    ",
"                                                                                                    ",
"                                                                                                    ",
"                                                                                                    ",
"                                                                                                    ",
"                                                                                                    ",
"                                                                                                    ",
"                                                                                                    ",
"                                                                                                    ",
"                                                                                                    ",
"                                                                                                    ",
"                                                                                                    ",
"                                                                                                    ",
"                                                                                                    ",
"                                                                                                    ",
"                                                                                                    ",
"                                                                                                    ",
"                                                                                                    ",
"                                                                                                    ",
"                                                                                                    ",
"                                                                                                    ",
"                                                                                                    "
};
