/* XPM */
static char *_fc490e568ef4cf9cbf7166dfeacda8ar8IHl99x2ahfeWmm[] = {
/* columns rows colors chars-per-pixel */
"100 100 2 1 ",
"  c #76428A",
". c white",
/* pixels */
"                                                                                                    ",
"                                                                                                    ",
"                                                                                                    ",
"                                                                                                    ",
"                                                                                                    ",
"                                                                                                    ",
"                                                                                                    ",
"                                                                                                    ",
"                                                                                                    ",
"                                                                                                    ",
"                                                                                                    ",
"                                                                                                    ",
"                                                                                                    ",
"                               ...............                                                      ",
"                           ......................................                                   ",
"                          ........................................                                  ",
"                         ..........................................                                 ",
"                         ..........................................                                 ",
"                        .........           .......................                                 ",
"                        ......                                 ...                                  ",
"                        .....                                                                       ",
"                        .....                                                                       ",
"                        .....                                                                       ",
"                       ......                                                                       ",
"                       ......                                                                       ",
"                       .....                                                                        ",
"                       .....                                                                        ",
"                       .....                                                                        ",
"                       .....                                                                        ",
"                       .....                                                                        ",
"                       .....                                                                        ",
"                       .....                                                                        ",
"                       .....                                                                        ",
"                       ......                                                                       ",
"                       ......                                                                       ",
"                        .....                                                                       ",
"                        .....                                                                       ",
"                        .....                                                                       ",
"                        .....                                                                       ",
"                        .....                                                                       ",
"                        .....                                                                       ",
"                        ......                                                                      ",
"                        ......                                                                      ",
"                         .....                                                                      ",
"                         .....                                                                      ",
"                         .....                                                                      ",
"                         .....                                                                      ",
"                         .........................                                                  ",
"                        ...........................                                                 ",
"                        ...........................                                                 ",
"                        ...........................                                                 ",
"                         .........................                                                  ",
"                          .....                                                                     ",
"                          .....                                                                     ",
"                          .....                                                                     ",
"                          .....                                                                     ",
"                          .....                                                                     ",
"                          .....                                                                     ",
"                          .....                                                                     ",
"                          .....                                                                     ",
"                          .....                                                                     ",
"                          ......                                                                    ",
"                          ......                                                                    ",
"                           .....                                                                    ",
"                           .....                                                                    ",
"                           .....                                                                    ",
"                           .....                                                                    ",
"                           .....                                                                    ",
"                           .....                                                                    ",
"                           .....                                                                    ",
"                           .....                                                                    ",
"                           .....                                                                    ",
"                           .....                                                                    ",
"                           .....                                                                    ",
"                           ......                                                                   ",
"                           ......                                                                   ",
"                            .....                                                                   ",
"                            ......                                                                  ",
"                            ......                                                                  ",
"                            .......                                  ...                            ",
"                             .......                               ......                           ",
"                             ..........              ....................                           ",
"                              ...........................................                           ",
"                               ..........................................                           ",
"                                ........................................                            ",
"                                  ...................................                               ",
"                                    ...................                                             ",
"                                                                                                    ",
"                                                                                                    ",
"                                                                                                    ",
"                                                                                                    ",
"                                                                                                    ",
"                                                                                                    ",
"                                                                                                    ",
"                                                                                                    ",
"                                                                                                    ",
"                                                                                                    ",
"                                                                                                    ",
"                                                                                                    ",
"                                                                                                    "
};
