/* XPM */
static char *_17c3c7d8f9c4ee7dd08def39e577b95Q5uWD19VUVzPg1OY[] = {
/* columns rows colors chars-per-pixel */
"63 148 35 1 ",
"  c None",
". c black",
"X c gray6",
"o c #101010",
"O c #111111",
"+ c #3F1000",
"@ c #401000",
"# c #702000",
"$ c #302070",
"% c #880800",
"& c #B00000",
"* c #903F00",
"= c #D81000",
"- c #F00000",
"; c #904000",
": c #914000",
"> c #9F501F",
", c #B06000",
"< c #A05020",
"1 c #C06040",
"2 c #F0A020",
"3 c #F0D000",
"4 c #E09060",
"5 c #6050A0",
"6 c #F0B080",
"7 c #F0C090",
"8 c #F0D0A0",
"9 c #9080C0",
"0 c #B0A0D0",
"q c #D0B8F0",
"w c #90C8E7",
"e c #90C8E8",
"r c #90C8E9",
"t c #D0D0F0",
"y c gray94",
/* pixels */
"                                                               ",
"                                                               ",
"                                                               ",
"                                                               ",
"                                                               ",
"             ooooXXo                                           ",
"  oooo;;;;;;;;;;;;;;;;;;##ooX                                  ",
"oo#;;;;;;;;;;;;;;;;;;;;;;;;;;#ooo                              ",
";;;;;;;;;;;;;;;;;;;;;;;;;;;;;;;;;#oo                           ",
"ooo#;;;;;;;;;;;;;;;;;;;;;;;;;;;;;;;#@oo                        ",
"...oo@#;;;;;;;;;;;;;;;;;;;;;;;;;;;;;;;#oo                      ",
"..oo@#;;;;;;;;;;;;;;;;;;;;;;;;;;;;;;;;;;#o                     ",
"oo##;;;;;;;;;;;;;;;;;;;;;;;;;;;;;;;;;;;;;;#X                   ",
"#;;;;;;;;;;;;;;;;;;;;;;;;;;;;;;;;;;;;;;;<<<;o                  ",
";;;;;;;;;;;;;;;;;;;;;;;;;;;;;;;;;;;;;;;;;<11;o                 ",
";;;;;;;;;;;;;;;;;;;;;;;;;;;;;;;;;;;;;;;;;;<11;o                ",
";;;;;;;;;;;;;;;;;;;#######;;;;;;;;;;;;;;;;;<11;o               ",
";;;;;;;##;;;;;;;;########@o##;;;;11<;;;;;;;;;<1;oo             ",
";;;;;;##;;;;;;;;;;;#####o@##;;;<11111<;;;;;;;;;11;@o           ",
";;;;;@#;;;;;;;;;;######o@###;;;;;<11111;;;;;;;<1111#oo         ",
";;;;@#;;;;;;;;########o#####;;;;;;;;<1111<<111<111111#@o       ",
";;;@##;;;;;;#########o@#####;;;;;;;;;;111111111<1<;;111<#oo    ",
"##@##;;;;;##########o@########;;;;;;;;;;<<111111;;;;;<1111<<o  ",
"#@@##;;;###########oo############;;;;;;;;;;;;;;;#;;;;;;;;;;<;  ",
"@@##;##############o###############;;;;;;;;;;;;;#;;#;;;;;;;#   ",
"@#################o@################;;;o;;;;;;;;;#;1##;;;#     ",
"################99@####################o;;;;;;;;;#;;11@@@      ",
"##############99qo#############@######oo;;;;;;;;;#;;<1or       ",
"##########@##99y9@############@######o9@;;;;;;;;;;o;;11o       ",
"#########@@#9qyqo##########@9o######o99@;;;;;;;;;;o#;;1o       ",
"#######@9y@9yyy9@########@9q9######o9y9o;;;;;;o;;;@@;;11       ",
"##@#@@99yq9yyyqo#######99qq9#####ooqyy9o#;;;;@o;;;#o;;;1       ",
"@@999yyyyqqyyy9@#####99yy9@####@o9yyyy9o#;;;@@#@;;;o;;;<       ",
"yyyyyyyyyyyyooo###@@oooo@####@ooyyyyyy9o#;;;oy9o;;#o;;;;       ",
"yyyyyyyyqooo@@o##@16884;#@@oo@#@ooooo99o##;@9y9@#;;o#;;;>      ",
"yyyyyqooo####@@@o188886ooo#484;##6864ooo###oyyq@@;;@#;;;;      ",
"yyyqoo@######o@;1688886188886661##88888o##oo9yy9o;;@#;;;*      ",
"yyoo###########478888887866611466<;8888@@@o4ooo9o#;o#;;;;      ",
"oo####@#####@#66788888764666664146<1888#@o18841o@@;o#;;;*      ",
"66o##@@#####<66678888876#ooooo#114616884o@88888<@@#o#;;;       ",
"686o@<<@####66667888888649q99ooo#1461884o188886#@o#o#;;#       ",
"@186o<41@#@46666788888878yyq#@ooo<166888<488881#@o;o;;;#       ",
"#1164446#@#66666788888888yyy61@oo@148888688884;6<o#o;;##       ",
"<14<1686##166666788888888yy11@o@@o14888888888;48<o#o;##o       ",
"<444@118<@6666667888888886y;@oo#1<68888888881168<o#@###        ",
"166#<<<8<@66666678888888881#;##<6888888888841866<@@@###        ",
"16#<1o18<#666666788888888641;##18888888888816466;@o@##         ",
"64#1#1681#66666678888888888888468888888888644114@@o#@#         ",
"641#186641666666788888888888888888888888881<#o@@#@o##          ",
"641#16666466666678888888888888888888888888#@oooo#@@@#          ",
"861#@6666666666678888888888888888888888888@o144#@o@#           ",
"181##16666666666788888888888888888888888884188611o#X           ",
"4#<681466666666678888888888888888888888888848886#oo            ",
"81186666466666667888888;;68888888888888888884787oo             ",
"68#<#664466666666888887o##468888888888888888478#o              ",
"o4866414166666666788887oyq#;1488888888616888471oo              ",
"#oo644@4<46666666688886oyyyq;;1468888641461;4878o              ",
"###ooo16#16666666678887oyyyyyyq1;;4866666##68887o              ",
"#####<46o16666666668888oqyyyyyyyyq;#666611888887X              ",
"####@#68o<6666666667888ooyyyyyyyyyyq##4888888886               ",
"#####1681o6666666667888o#oooqqyyyyyyyq#888888881               ",
"####;4661o46666666668887o%%%oooottyyyyt#6888888o               ",
"###;466641o6666666667888o%%%%%%%oottyy0o8888888o               ",
"#o#1766661o66666666668888o%%%%%%%%o0t0o88888881oo              ",
"o#o47666641o6666666667888o%%%%%%==%ooo88888886o5o              ",
" o466666644o46666666678888o%%%%%===%o88888888<o5$              ",
"  o1ooooo444o46666666678888o%%%====o488888881o555o             ",
"  oo&&&&&ooo1o66666666788884o%%==%o188888884o9o55$             ",
" o&&&&&&&&&&ooo66666666888888o%%oo488888884oqy9o5$             ",
"$o&&&&&&&&&&&&&o66666667888887oo<488888881oqyyqo55o            ",
"o&&&&&&&&&&&&&&&o66666678888888888888888<oo9yyy9o5$            ",
"o&&&&&&&&&&&&&&&&o666666788888888888886#o5$oqyyqo55X           ",
"o&&&&&&&&&&&&&&&&&o4666668888888888881oo555o9yyqo55o           ",
"$oo&&&&&&&&&&&&&&&&o1666678888888886;o55555$oyyyo55$           ",
"$$$oo&&&&&&&&&&&&&&&oo6667888888884@o5555555oyyy9o5$o          ",
"$$$$$oo&&&&&&&&&&&&&&&o46678888884oo55555555oqyyqo55ow         ",
"$$$$$$$oo&&&&&&&&&&&&&&oo4788888oo5555555555o9yyqo55oor        ",
"$$$$$$$$$oo&&&&&&&&&&&&&&o14641o5555555555555oyyyo55$ooo       ",
"$$$$$$$$$$$o&&&&&&&&&&&&&&ooooo55555555555555oyyyo55$oyqoo     ",
"$$$$$$$$$$$$oo&&&&&&&&&&&&&&-o555555555555555oyyyo55$oyyyyo    ",
"$$$$$$$$$$$$$$o&&&&&&&&&&&&-&o555555555555555oyyyo55$oyyyyyyo  ",
"$$$$$$$$$$$$$$$oo&&&&&&&&&--o555$$55555555555oyyyo55$oyyyyyyyqo",
"$$$$$$$$$$$$$5555o&&&&&&----o555$$55555555555oyyyo55$oyyyyyyyyy",
"$$$$$$$$$$55555555oo&-------o555$$55555555555oyyyo55$oyyyyyyyyy",
"$$$$$$$5555555555555o&------o5555$55555555555oyyyo55ooyyyyyyyyy",
"$$$$$5555555555555555oo-----oo555$55555555555oyyyo55oqyyyyyyyyy",
"$$$5555555555555555555$o&--&o&o55$55555555555oyyyo55oqyyyyyyyyy",
"$55555555555555555555555o&&o&&&o5$55555555555oyyyo55oqyyyyyyyyy",
"5555555555555555555555555ooo&&&oo$55555555555oyyqo55o9yyyyyyyyy",
"oo$5$ooooooooo555555555555$o&&&&o555555555555oyy9o5$oo9yyyyyyyy",
"2,ooo,2333332,ooooo$55555555o&&&o555555555555oyyo55$o2ooqyyyyyy",
"222222223333333332,ooo$555555oo&o555555555555oyqo55o,33,oqyyyyy",
"222222222333333333332,ooo$5555$oo55555555555oqyqo5$o2333,oqyyyy",
"ooooo,233333333333333332,ooo555$o55555555555oyy9o5$o32333,oyyyy",
"2222,ooo2333333333333333332,oo555o5555555555oyy9o5o,323332o9yyy",
"2222222,o23333333333333333332,oo55o555555555oyyo5$o22,2333,oqyy",
"22222222,o233333333333333333332,o55o55555555oyqo5$o22,,3332o9yy",
"222222222o,333333333333333333333,oo5o555555oqy9o5o,22,,3333,oyy",
"2222222222o,3333333333333333333332,o$o55555oyyo$$o222,,33332oqy",
"2222222222o,23333333333333333333333,ooo5555oyqo$o,222,,33333o9y",
"2222222222o2222222223333333333333333,oo$55oqyo$$o222,,233333,oy",
"222222222o,22222222222222233333233333o5o5$5qqo$o,222,,2333332oy",
"22222222,o22ooooooooooo,22223333223332ooooo5o$$o222,,22333333oy",
"22222222o2oo,,222222,,,ooooo,,3333223325555oo$o,23,,223333333oy",
"2222222,oo,22222222222,,oo,,ooo,333223325qq55oo33,,2333333332oy",
"222222222222222222222,oo,,222,,ooo,3322329yy955o,,3333333333,oy",
"22222222222222222222,o,,,,,222222,oo,3223,5qyq55o33333333333o9y",
"2222222222222222222,o,,,2,,,2222222,o,3323$5yyq5o33333333332oyy",
"222222222222222222,o,2,,,22,,,2222,o9o,332$$5yy5o3333333332o9yy",
"22222222222222222,o,2332,,,22,,,22,o99oo33$$5qy5o333332,ooo9qyy",
",2222222222222222,o,333332,,,,,,,2,o99o,o3$$55yo2332,ooo99qyyyy",
"o222222222222222,o,32222332222,,,,,,o9o2,o$$$5yo32,oo9qyyyyyyyy",
"o,22222222222222,oo2,,222222222,,,,o9o32,2o$55o2,oo9yy9qyyyyyyy",
"qo,2222222222222o9yoo,,22,,oooooooo9o33,33,o55ooooqyyyq9yyyyyyy",
"y9o,22222222222,oqyq9oooooo9yyyyy99o333,32,2oo99yyyyyyy9qyyyyyy",
"yyqoo,222222222,oqyyyyyyyyyyyyyyy9o3333,32,2,oqyyyyyyyyq9yyyyyy",
"yyyy9o,,2222222,oqyyyyyyyyyyyyyq9o33332,3,232oyyyyyyyyyy9qyyyyy",
"yyyyy9oooo,,222o9yyyyyyyyyyyyq9oo33333,23,232oyyyyyyyyyyq9yyyyy",
"yyyyy9qqq9ooooo9yyyyyyyyyyyq9oo3333333,33,232oyyyyyyyyyyy9qyyyy",
"yyyyy9qyyyyyyyyyyyyyyyyyyy9oo233333332,33,332oyyyyyyyyyyyq9yyyy",
"yyyyy9qyyyyyyyyyyyyyyyyy9oo,333333333,233,332oyyyyyyyyyyyy9qyyy",
"yyyyy9yyyyyyyyyyyyyyyq9oo233333333333,333,32,oyyyyyyyyyyyyq9yyy",
"yyyyy9yyyyyyyyyyyyq99oo23333333333333,333,32oqyyyyyyyyyyyyy9qyy",
"yyyy9qyyyyyyyyyyq9ooo2333333333333333,333232oyyyyyyyyyyyyyyq9yy",
"yyyq9yyyyyyyqq9ooo2333333333333333332,333232oyyyyyyyyyyyyyyy9yy",
"yyq9yyyyyq99@ooo23333333333333333333,2333232oyyyyyyyyyyyyyyyyyy",
"yq9qyqq999ooo23333333333333333333333,3333333oqyyyyyyyyyyyyyyyyy",
"q999999ooo22223333333333333333333333,33333332oyyyyyyyyyyyyyyyyy",
"999oooo33333233333333333333333333332,33333333oqyyyyyyyyyyyyyyyy",
"ooo23333333333333333333333333333333,233333333,oyyyyyyyyyyyyyyyy",
"33333333333333333333333333333333333,3333333332oqyyyyyyyyyyyyyyy",
"33333333333333333333333333333333333,3333333333,oyyyyyyyyyyyyyyy",
"22222222222333333333333333333333332,33333333332oyyyyyyyyyyyyyyy",
",,,,,,,,,,,,,,,,223333333333333333,233333333332oyyyyyyyyyyyyyyy",
"2222222222222222,,,,,,22223333332,2333333333332oyyyyyyyyyyyyyyy",
"2222222222222222222222,,,,,,,,,,,33333333333332oyyyyyyyyyyyyyyy",
"2222222222222222222222222233333333333333333332o9yyyyyyyyyyyyyyy",
"332222222222222222222222233333333333333333332o9yyyyyyyyyyyyyyyy",
"33332222222222222222222233333333333333,oooooo9qyyyyyyyyyyyyyyyy",
"333333322222222222222223333333333333,oo9999qqqyyyyyyyyyyyyyyyyy",
"3333333332222222222222333333333332ooo9qyyyyyyyyyyyyyyyyyyyyyyyy",
"o,233333333222222223333333333332oo9qyyyyyyyyyyyyyyyyyyyyyyyyyyy",
"9oo,23333333333333333333333333oo9qyyyyyyyyyyyyyyyyyyyyyyyyyyyyy",
"yy9oo,33333333333333333333332o9qyyyyyyyyyyyyyyyyyyyyyyyyyyyyyyy",
"yyyy9oo,3333333333333333333oo9yyyyyyyyyyyyyyyyyyyyyyyyyyyyyyyyy",
"yyyyyq9o,33333333333333332o9qyyyyyyyyyyyyyyyyyyyyyyyyyyyyyyyyyy",
"yyyyyyy9oo33333333333333oo9yyyyyyyyyyyyyyyyyyyyyyyyyyyyyyyyyyyy",
"yyyyyyyyq9o333333333333o9qyyyyyyyyyyyyyyyyyyyyyyyyyyyyyyyyyyyyy"
};
